<?xml version="1.0" standalone="no"?>
<!DOCTYPE svg PUBLIC "-//W3C//DTD SVG 20010904//EN"
 "http://www.w3.org/TR/2001/REC-SVG-20010904/DTD/svg10.dtd">
<svg version="1.0" xmlns="http://www.w3.org/2000/svg"
 width="820.000000pt" height="820.000000pt" viewBox="0 0 820.000000 820.000000"
 preserveAspectRatio="xMidYMid meet">
<metadata>
Created by potrace 1.14, written by Peter Selinger 2001-2017
</metadata>
<g transform="translate(0.000000,820.000000) scale(0.100000,-0.100000)"
fill="#000000" stroke="none">
<path d="M1398 6451 c-74 -15 -141 -79 -163 -156 -12 -42 -15 -356 -17 -2010
l-3 -1960 25 -45 c19 -34 38 -52 80 -73 l55 -28 1035 1 1035 1 -2 -23 c-3 -23
-29 -177 -58 -333 -8 -44 -22 -111 -31 -148 -12 -51 -14 -74 -6 -90 6 -12 25
-57 42 -100 43 -104 87 -143 173 -152 34 -3 283 -5 552 -3 415 3 494 5 513 18
32 21 79 97 103 166 12 33 25 66 30 75 8 16 -2 73 -21 114 -5 11 -21 88 -35
170 -14 83 -32 184 -39 225 -8 41 -12 77 -10 79 2 2 461 4 1020 4 792 0 1028
2 1065 12 73 19 115 50 140 102 l22 46 -6 1967 c-6 2157 -1 1998 -66 2072 -17
20 -48 44 -69 54 -36 18 -124 19 -2682 20 -1455 1 -2661 -1 -2682 -5z m4432
-781 c0 -5 -2 -10 -4 -10 -3 0 -8 5 -11 10 -3 6 -1 10 4 10 6 0 11 -4 11 -10z
m-1920 -40 c0 -5 -2 -10 -4 -10 -3 0 -8 5 -11 10 -3 6 -1 10 4 10 6 0 11 -4
11 -10z m565 -110 c-3 -5 -10 -10 -16 -10 -5 0 -9 5 -9 10 0 6 7 10 16 10 8 0
12 -4 9 -10z m-35 -4 c0 -2 -16 -14 -35 -26 -37 -23 -45 -47 -20 -56 18 -7
-86 -110 -121 -118 -14 -4 -39 2 -66 16 -24 13 -49 23 -57 23 -8 0 -16 6 -18
13 -4 9 17 12 86 10 90 -3 122 7 106 32 -5 8 -11 8 -22 -2 -13 -10 -14 -8 -11
12 4 28 101 100 136 100 12 0 22 -2 22 -4z m560 0 c0 -3 -4 -8 -10 -11 -5 -3
-10 -1 -10 4 0 6 5 11 10 11 6 0 10 -2 10 -4z m150 -46 c0 -5 -5 -10 -11 -10
-5 0 -7 5 -4 10 3 6 8 10 11 10 2 0 4 -4 4 -10z m-613 -28 c37 -23 16 -33 -22
-11 -19 12 -32 25 -29 30 5 9 10 8 51 -19z m423 8 c0 -5 18 -19 40 -30 22 -11
40 -25 40 -30 0 -14 -17 -12 -43 5 -20 13 -26 13 -51 0 -15 -8 -32 -12 -37 -9
-18 11 -9 49 14 60 29 15 37 16 37 4z m-122 -77 c3 -33 -16 -53 -65 -67 -17
-5 -24 -1 -34 24 -14 31 -24 37 -33 21 -7 -10 -76 -13 -76 -2 0 12 20 36 20
24 0 -6 9 -9 21 -6 16 5 18 8 7 15 -8 6 2 8 30 4 31 -5 49 -2 65 9 35 25 61
15 65 -22z m-2497 -65 c1 -24 3 -35 6 -25 3 11 14 17 34 17 35 0 37 -12 7 -34
l-23 -16 28 -23 c34 -29 34 -37 -2 -37 -21 0 -31 6 -36 23 l-8 22 -4 -22 c-3
-16 -11 -23 -29 -23 -24 0 -32 14 -14 25 6 3 10 28 10 55 0 27 -4 52 -10 55
-18 11 -10 25 15 25 23 0 25 -4 26 -42z m344 33 c3 -5 1 -12 -5 -16 -14 -9
-13 -138 2 -153 16 -16 1 -29 -20 -16 -9 6 -18 26 -20 45 -2 19 -9 37 -15 41
-9 5 -9 10 1 20 6 6 12 24 12 38 0 37 30 64 45 41z m-1095 -10 c0 -6 -4 -12
-9 -15 -5 -4 -2 -24 7 -47 l16 -42 17 39 c10 23 13 43 8 49 -16 17 -9 25 20
25 35 0 47 -13 27 -29 -8 -7 -24 -36 -36 -66 -12 -30 -27 -55 -34 -55 -9 0
-76 126 -76 144 0 3 14 6 30 6 17 0 30 -4 30 -9z m218 -18 c4 -26 -5 -28 -31
-8 -11 7 -25 11 -33 8 -26 -10 -14 -29 24 -39 31 -7 38 -14 40 -38 4 -35 -10
-46 -64 -46 -43 0 -59 15 -44 40 7 11 11 10 25 -3 18 -19 33 -21 54 -8 17 11
6 31 -17 31 -24 0 -62 28 -62 45 0 27 31 46 69 43 29 -2 37 -8 39 -25z m92 7
c0 -16 7 -20 30 -20 17 0 30 -4 30 -9 0 -13 -37 -24 -51 -16 -7 5 -9 -4 -7
-26 3 -33 5 -34 41 -31 20 2 37 -1 37 -6 0 -23 -78 -30 -98 -10 -7 7 -12 26
-12 44 0 18 -6 35 -12 37 -9 4 -10 8 -2 14 6 4 13 16 17 26 9 23 27 22 27 -3z
m2980 10 c0 -5 -4 -10 -10 -10 -5 0 -10 5 -10 10 0 6 5 10 10 10 6 0 10 -4 10
-10z m-770 -6 c0 -16 -66 -86 -94 -101 -17 -9 -34 -21 -38 -27 -5 -8 -13 -8
-28 2 -28 17 -34 16 -70 -18 -26 -24 -35 -28 -56 -20 -13 5 -24 14 -24 20 0
13 -47 13 -55 0 -4 -6 -15 -8 -26 -5 -13 5 -29 -2 -48 -22 -70 -68 -70 -68
-91 -55 -11 7 -37 12 -58 12 -43 0 -69 16 -74 45 -2 15 -11 20 -33 20 -19 1
-31 6 -33 17 -5 27 15 30 79 14 77 -20 118 -20 125 -1 4 10 20 15 44 15 22 0
42 5 46 11 4 8 34 10 90 6 58 -4 88 -2 97 6 26 24 59 38 77 32 15 -5 21 0 26
19 7 28 24 35 24 10 0 -18 35 -11 60 12 14 14 60 20 60 8z m-2012 -64 c2 -19
8 -39 13 -44 19 -21 7 -27 -47 -24 -42 2 -60 8 -68 21 -14 23 15 47 57 47 18
0 26 4 21 11 -3 6 -19 9 -35 5 -15 -3 -31 -2 -33 3 -10 15 8 22 49 19 38 -3
40 -5 43 -38z m169 24 c10 -25 -13 -39 -33 -20 -19 20 -43 18 -57 -6 -19 -29
9 -50 56 -43 30 6 38 4 35 -6 -6 -17 -46 -27 -78 -19 -14 3 -31 18 -39 32 -13
23 -13 29 2 52 15 22 25 26 63 26 31 0 46 -5 51 -16z m1173 -45 c0 -6 -4 -7
-10 -4 -5 3 -10 11 -10 16 0 6 5 7 10 4 6 -3 10 -11 10 -16z m-100 -63 c0 -3
-4 -8 -10 -11 -5 -3 -10 -1 -10 4 0 6 5 11 10 11 6 0 10 -2 10 -4z m-335 -67
c10 -18 23 -29 36 -29 11 0 17 -5 14 -10 -4 -7 -12 -7 -25 0 -10 5 -28 10 -39
10 -25 0 -30 9 -24 42 6 32 17 28 38 -13z m271 -20 c-14 -17 -26 -41 -26 -55
0 -20 5 -24 31 -24 38 0 34 -24 -5 -28 -23 -3 -27 -8 -24 -30 3 -25 6 -27 41
-24 20 2 37 -2 37 -7 0 -15 -18 -23 -56 -24 -39 -1 -54 14 -54 55 0 20 -7 28
-30 37 -24 8 -30 7 -30 -5 0 -7 -5 -14 -12 -14 -9 0 -9 -3 0 -12 20 -20 14
-48 -13 -58 -31 -12 -82 -2 -89 17 -7 18 17 27 41 14 12 -6 25 -6 34 0 11 7 9
9 -9 9 -34 0 -62 18 -62 40 0 22 31 42 63 40 40 -4 47 0 47 24 0 23 3 24 30
16 23 -7 30 -5 30 5 0 20 40 55 63 55 17 0 16 -3 -7 -31z m-136 -29 c0 -5 -2
-10 -4 -10 -3 0 -8 5 -11 10 -3 6 -1 10 4 10 6 0 11 -4 11 -10z m-446 -22 c-9
-29 -9 -114 1 -150 10 -38 -10 -37 -30 2 -27 53 -9 170 26 170 7 0 8 -8 3 -22z
m2226 -42 c0 -59 2 -65 23 -68 43 -6 16 -23 -38 -23 -54 0 -81 17 -37 23 19 3
22 9 22 52 0 40 -3 49 -21 53 -29 8 -14 27 22 27 l29 0 0 -64z m260 40 c0 -19
4 -23 20 -19 24 6 70 -21 70 -42 0 -22 17 -18 23 5 11 43 110 49 121 6 11 -41
7 -46 -41 -48 l-48 -2 48 -3 c54 -5 59 -22 11 -36 -37 -11 -84 6 -91 33 -5 18
-7 17 -34 -11 -26 -28 -32 -30 -76 -23 -60 8 -67 12 -52 30 8 9 10 35 6 74 -5
58 -4 60 19 60 19 0 24 -5 24 -24z m467 -2 c32 -50 12 -174 -28 -174 -7 0 -8
8 -3 23 4 12 8 47 8 77 0 30 -4 65 -8 78 -12 31 9 29 31 -4z m-3692 5 c4 -6
-2 -13 -14 -16 -17 -4 -21 -13 -21 -48 0 -34 4 -44 20 -48 41 -11 20 -27 -35
-27 -55 0 -76 16 -35 27 16 4 20 14 20 48 0 35 -4 44 -21 48 -35 9 -11 27 36
27 24 0 47 -5 50 -11z m1749 -34 c15 -25 30 -44 33 -42 7 8 -9 57 -18 57 -5 0
-9 7 -9 15 0 11 11 15 36 15 31 0 35 -3 28 -17 -4 -10 -10 -44 -12 -75 -2 -35
-8 -58 -15 -58 -7 0 -24 19 -39 43 -26 40 -28 41 -28 15 0 -15 5 -30 10 -33
24 -15 6 -24 -45 -24 l-55 1 0 45 c0 30 -4 42 -11 37 -7 -4 -9 -21 -5 -45 6
-34 4 -39 -14 -39 -17 0 -20 7 -20 46 0 31 -4 43 -11 38 -7 -4 -9 -22 -6 -45
5 -35 3 -39 -18 -39 -21 0 -22 3 -17 45 3 33 1 45 -9 45 -9 0 -10 3 -3 10 14
14 112 19 129 6 8 -6 15 -27 17 -46 4 -51 23 -43 26 13 2 28 -1 47 -7 47 -6 0
-11 7 -11 15 0 9 9 15 23 15 15 0 31 -14 51 -45z m889 13 c-10 -53 -19 -53
-29 0 -6 28 -4 32 15 32 18 0 20 -4 14 -32z m52 0 c-8 -34 -13 -44 -19 -37 -2
2 -6 19 -9 37 -6 28 -4 32 14 32 18 0 20 -4 14 -32z m847 -3 c-5 -40 -17 -46
-26 -12 -10 36 -7 47 12 47 15 0 17 -6 14 -35z m53 3 c-8 -34 -13 -44 -19 -37
-2 2 -6 19 -9 37 -6 28 -4 32 14 32 18 0 20 -4 14 -32z m-3425 -52 c0 -42 10
-52 24 -23 8 15 22 23 44 25 17 2 32 8 32 13 0 6 -12 8 -29 4 -37 -8 -51 12
-17 25 43 16 76 -3 76 -43 0 -18 5 -38 12 -45 17 -17 8 -22 -53 -21 -30 0 -69
0 -86 -1 -32 0 -33 1 -33 46 0 31 -4 43 -11 38 -7 -4 -9 -22 -6 -45 4 -34 2
-39 -14 -39 -16 0 -19 7 -19 46 0 31 -4 43 -11 38 -7 -4 -9 -22 -6 -45 5 -35
3 -39 -16 -39 -20 0 -22 5 -22 55 l0 54 50 3 c68 4 85 -5 85 -46z m309 37 c3
-2 -1 -9 -7 -15 -7 -7 -12 -32 -12 -56 0 -64 -13 -82 -60 -82 -22 0 -40 5 -40
10 0 6 9 10 19 10 26 0 51 10 51 20 0 5 -13 8 -30 8 -43 -1 -62 18 -58 61 4
44 33 61 91 54 23 -3 44 -7 46 -10z m124 -11 c9 -8 17 -23 17 -34 0 -15 -8
-18 -47 -18 -32 0 -43 -3 -34 -9 8 -5 29 -7 48 -4 20 4 33 1 33 -5 0 -17 -17
-23 -60 -24 -51 -1 -70 15 -70 58 0 57 65 78 113 36z m307 11 c2 -2 -1 -12 -8
-23 -7 -12 -8 -21 -2 -25 19 -12 10 -45 -15 -55 -37 -14 -85 -2 -85 21 0 22 4
23 31 9 13 -7 25 -8 37 -1 15 9 15 10 -4 11 -29 0 -69 33 -60 49 16 25 83 34
106 14z m593 -11 c9 -8 17 -23 17 -34 0 -15 -8 -18 -52 -19 -39 0 -48 -3 -33
-9 11 -5 35 -6 54 -3 26 4 33 3 29 -8 -12 -35 -112 -25 -123 13 -22 68 52 109
108 60z m428 18 c13 -7 19 -21 19 -43 0 -18 5 -38 12 -45 17 -17 8 -21 -49
-23 -56 -2 -73 4 -73 30 0 25 20 41 52 41 15 0 28 5 28 11 0 7 -11 8 -29 4
-36 -8 -51 12 -19 24 31 13 36 13 59 1z m179 -5 c5 -3 10 -21 10 -40 0 -19 5
-37 10 -40 15 -9 2 -25 -21 -25 -16 0 -19 7 -19 46 0 30 -4 43 -11 38 -7 -4
-9 -21 -5 -45 6 -34 4 -39 -14 -39 -17 0 -20 7 -20 46 0 31 -4 43 -11 38 -7
-4 -9 -22 -6 -45 5 -36 3 -39 -19 -39 -22 0 -23 3 -17 45 4 34 2 45 -8 45 -21
0 3 18 31 22 32 5 86 1 100 -7z m143 -13 c9 -8 17 -23 17 -34 0 -15 -9 -18
-52 -20 l-53 -2 53 -3 c61 -5 67 -23 11 -35 -40 -8 -82 9 -87 35 -14 70 56
107 111 59z m626 11 c3 -2 -1 -9 -7 -15 -7 -7 -12 -35 -12 -63 0 -28 -5 -56
-12 -63 -14 -14 -88 -16 -88 -3 0 11 25 21 51 21 10 0 19 4 19 8 0 5 -14 9
-31 9 -39 0 -61 26 -57 68 4 38 36 55 91 48 23 -3 44 -7 46 -10z m265 -4 c40
-31 36 -75 -9 -96 -34 -16 -36 -16 -63 4 -38 28 -40 65 -6 92 33 26 45 26 78
0z m-2158 -5 c-3 -8 -1 -25 5 -37 11 -19 12 -19 24 -3 7 9 11 26 8 36 -4 17 0
20 26 20 17 0 31 -2 31 -5 0 -3 -14 -28 -32 -57 -18 -28 -32 -63 -33 -77 0
-26 0 -27 -60 -23 -34 3 -31 18 5 31 17 5 30 13 30 16 0 12 -40 84 -50 90 -17
10 -1 25 27 25 19 0 24 -4 19 -16z m1384 1 c0 -8 -7 -15 -15 -15 -8 0 -15 7
-15 15 0 8 7 15 15 15 8 0 15 -7 15 -15z m0 -80 c0 -8 -7 -15 -15 -15 -8 0
-15 7 -15 15 0 8 7 15 15 15 8 0 15 -7 15 -15z m-1960 -150 c0 -8 -7 -15 -15
-15 -8 0 -15 7 -15 15 0 8 7 15 15 15 8 0 15 -7 15 -15z m1210 -49 c0 -55 3
-64 20 -69 41 -11 20 -27 -35 -27 -55 0 -76 16 -35 27 17 4 20 14 20 54 0 37
-4 49 -15 49 -8 0 -15 7 -15 15 0 10 10 15 30 15 l30 0 0 -64z m324 42 c-4
-13 -8 -48 -8 -78 0 -30 4 -65 8 -77 12 -34 -11 -29 -29 7 -27 53 -9 170 26
170 7 0 8 -8 3 -22z m276 -42 c0 -59 2 -65 23 -68 43 -6 16 -23 -38 -23 -54 0
-81 17 -37 23 19 3 22 9 22 52 0 40 -3 49 -21 53 -29 8 -14 27 22 27 l29 0 0
-64z m731 32 c25 -61 7 -168 -28 -168 -12 0 -13 6 -7 28 10 34 10 119 0 150
-13 36 19 27 35 -10z m-1741 -2 c0 -29 -18 -44 -26 -22 -7 19 -58 22 -52 4 3
-7 19 -16 36 -20 55 -15 65 -70 16 -89 -50 -18 -115 14 -85 44 8 8 14 8 23 -1
14 -14 54 -16 62 -3 3 5 -13 15 -36 23 -32 10 -44 19 -46 36 -5 35 15 52 64
52 40 0 44 -2 44 -24z m-462 -57 c2 -19 8 -38 13 -43 19 -20 7 -26 -50 -26
-52 0 -60 3 -67 22 -8 25 17 48 53 48 13 0 23 5 23 10 0 6 -13 9 -29 8 -35 -3
-42 14 -9 23 40 10 63 -5 66 -42z m181 34 c3 -2 -1 -9 -7 -15 -7 -7 -12 -32
-12 -56 0 -62 -14 -82 -55 -82 -18 0 -37 5 -40 10 -3 6 3 10 14 10 26 0 51 10
51 21 0 5 -13 9 -29 9 -40 0 -63 25 -59 64 4 39 35 56 91 49 23 -3 44 -7 46
-10z m124 -11 c9 -8 17 -23 17 -34 0 -15 -8 -18 -52 -19 -37 0 -47 -3 -33 -8
11 -5 35 -6 54 -3 25 4 33 2 29 -8 -12 -37 -111 -27 -123 12 -22 68 52 109
108 60z m310 11 c10 -6 9 -31 -3 -38 -6 -3 -17 1 -26 9 -18 19 -20 19 -45 6
-43 -24 1 -72 47 -51 16 7 25 7 30 0 9 -15 -6 -28 -42 -35 -24 -4 -37 0 -60
19 -25 22 -27 28 -19 53 16 45 72 62 118 37z m135 -34 c2 -19 8 -40 14 -47 15
-18 8 -21 -49 -23 -56 -2 -73 4 -73 30 0 26 21 41 58 41 19 0 31 4 27 10 -3 5
-19 9 -35 7 -35 -2 -41 16 -8 24 40 10 63 -5 66 -42z m307 18 c26 -38 19 -47
-37 -47 -40 -1 -49 -3 -36 -10 9 -6 29 -9 45 -8 15 2 30 -1 33 -7 9 -18 -86
-18 -104 0 -30 31 -18 77 24 93 32 12 57 5 75 -21z m569 23 c18 -6 26 -17 26
-33 0 -12 7 -33 16 -45 17 -25 14 -27 -46 -35 -45 -6 -80 8 -80 31 0 26 20 42
52 42 15 0 28 5 28 11 0 7 -11 8 -29 4 -52 -11 -48 16 6 34 1 1 13 -3 27 -9z
m196 -16 c0 -8 -10 -14 -23 -14 -43 0 -66 -46 -25 -52 12 -2 23 -9 26 -15 3
-9 -12 -13 -52 -13 -53 0 -74 14 -41 26 17 7 20 49 5 59 -22 14 -8 25 30 23
22 -1 43 1 46 5 10 9 34 -4 34 -19z m159 10 c3 -3 -1 -10 -7 -16 -7 -7 -12
-36 -12 -65 0 -41 -4 -55 -19 -65 -19 -11 -18 -12 5 -25 19 -9 30 -10 43 -1
15 9 27 8 54 -6 20 -9 39 -21 42 -26 12 -20 45 -10 55 16 8 21 15 25 34 20 16
-4 29 1 41 15 16 17 20 18 27 4 13 -22 24 -19 47 18 14 22 21 26 21 15 0 -10
7 -18 15 -18 8 0 15 -4 15 -10 0 -5 -4 -10 -10 -10 -5 0 -14 -9 -21 -21 -14
-27 2 -46 21 -24 15 18 40 20 40 3 0 -7 -7 -22 -15 -32 -22 -29 -19 -34 25
-41 34 -6 40 -11 40 -31 0 -24 -23 -33 -35 -14 -9 14 -41 12 -53 -3 -20 -24 3
-40 47 -34 31 4 41 2 41 -9 0 -26 -45 -39 -91 -25 -28 9 -45 9 -52 2 -5 -5
-23 -7 -40 -4 -21 4 -28 3 -23 -5 9 -16 3 -15 -39 2 -22 10 -35 22 -35 33 0
24 19 43 41 43 10 0 21 5 24 10 4 7 -2 9 -18 5 -14 -4 -28 -2 -31 4 -8 12 24
31 52 31 15 0 19 5 15 20 -10 36 -29 43 -67 25 -20 -10 -36 -24 -36 -33 0 -8
-12 -30 -26 -49 -26 -35 -26 -63 0 -63 10 0 13 -6 10 -15 -4 -8 -12 -15 -19
-15 -20 0 -28 -19 -16 -34 14 -16 2 -29 -15 -16 -6 6 -9 20 -6 32 4 16 2 20
-10 15 -11 -4 -20 6 -32 35 -8 22 -13 45 -10 50 7 11 -15 59 -31 70 -14 10
-34 -31 -35 -70 0 -29 2 -32 19 -22 26 13 33 -7 14 -37 -8 -12 -12 -27 -8 -33
3 -5 -1 -13 -9 -16 -20 -8 -21 -24 -1 -24 21 0 19 -34 -4 -54 -11 -10 -17 -24
-14 -32 10 -26 -7 -104 -23 -104 -8 0 -14 7 -14 15 0 8 -4 15 -10 15 -5 0 -10
-7 -10 -15 0 -17 -16 -20 -25 -6 -3 6 4 15 15 21 13 7 20 21 20 39 0 50 -59
52 -61 2 -1 -14 -2 -39 -3 -54 -1 -16 2 -31 6 -33 15 -9 8 -24 -10 -24 -23 0
-42 -19 -42 -42 0 -10 -7 -18 -16 -18 -12 0 -15 -8 -13 -34 2 -19 0 -38 -4
-42 -4 -4 -2 -13 3 -20 8 -9 -5 -20 -52 -42 -100 -49 -118 -54 -135 -40 -11 9
-19 9 -34 0 -15 -10 -23 -9 -39 0 -16 10 -24 10 -40 0 -11 -6 -31 -12 -44 -12
-14 0 -27 -4 -30 -9 -9 -14 -107 -21 -128 -10 -25 14 -52 -6 -28 -21 12 -7 11
-12 -4 -29 -11 -12 -25 -21 -33 -21 -7 0 -16 -7 -20 -15 -9 -26 -84 -59 -140
-62 -29 -1 -69 -7 -90 -12 -23 -6 -53 -7 -75 -2 -29 7 -35 6 -31 -5 12 -32
-112 -29 -207 6 -28 10 -58 16 -66 13 -10 -4 -14 2 -14 20 0 36 -10 57 -26 57
-8 0 -14 9 -14 20 0 13 -7 20 -19 20 -26 0 -46 25 -29 36 7 5 17 9 22 9 5 0
11 6 14 13 3 9 -3 13 -14 12 -39 -4 -45 -1 -33 19 15 23 4 55 -16 47 -11 -4
-15 2 -15 26 0 18 -7 36 -17 43 -17 13 -17 14 0 33 11 12 14 22 8 26 -6 4 -8
13 -4 21 3 10 -1 15 -15 15 -28 0 -38 18 -15 27 26 9 33 23 33 64 0 29 -4 38
-21 42 -29 8 -14 27 22 27 29 0 29 0 29 -58 l0 -58 58 0 57 0 2 42 c1 35 -2
43 -19 47 -29 8 -12 27 23 27 21 0 29 -5 30 -17 0 -13 3 -11 10 6 7 18 13 21
21 13 8 -8 8 -15 -1 -25 -8 -10 -8 -22 -2 -38 5 -13 10 -19 10 -12 1 7 12 24
25 38 20 21 26 24 33 12 4 -9 24 -17 43 -18 39 -4 59 -23 60 -56 0 -13 9 -32
20 -43 23 -23 31 -26 24 -7 -3 9 12 17 48 26 29 6 62 21 73 31 20 19 23 19 55
4 30 -16 33 -16 42 0 5 9 17 16 27 16 11 0 22 7 25 16 4 10 14 14 26 11 11 -3
23 -1 26 5 3 5 12 7 20 4 8 -3 15 1 15 9 3 28 4 33 12 41 4 4 7 0 7 -9 0 -20
11 -22 28 -5 8 8 15 8 27 -2 12 -10 15 -10 15 3 0 9 7 20 17 25 9 6 14 16 10
25 -8 20 19 30 44 16 17 -9 26 -5 54 24 29 30 32 36 18 42 -15 5 -13 9 10 29
35 30 39 91 6 99 -29 8 -14 27 21 27 29 0 29 -1 32 -62 3 -64 24 -93 30 -41 2
17 11 32 25 38 12 5 24 18 27 30 5 16 8 17 15 6 11 -17 41 -7 41 14 0 14 11
19 38 16 6 -1 12 6 12 16 0 18 46 47 61 37 5 -3 17 0 28 6 20 10 40 -3 22 -14
-5 -3 -7 -15 -4 -26 4 -16 2 -19 -11 -14 -17 6 -20 -4 -10 -30 7 -17 44 -22
44 -6 0 6 10 5 25 -2 19 -8 28 -8 39 2 22 17 31 77 15 96 -10 13 -10 17 2 25
8 5 22 9 31 9 9 0 19 4 22 9 4 5 -3 7 -14 4 -34 -9 -70 23 -70 62 0 48 30 68
90 59 25 -4 47 -8 49 -10z m124 -12 c9 -8 17 -23 17 -34 0 -15 -8 -18 -47 -18
-25 0 -43 -3 -39 -7 3 -4 25 -6 47 -4 49 2 50 -19 2 -32 -49 -14 -87 9 -91 55
-3 32 1 39 25 52 30 16 58 13 86 -12z m-2433 -21 c0 -30 4 -40 20 -44 41 -11
20 -27 -35 -27 -55 0 -76 16 -35 27 24 6 28 48 5 57 -26 10 -16 26 15 26 28 0
30 -2 30 -39z m198 -1 c2 -19 8 -40 13 -46 11 -14 1 -24 -23 -24 -15 0 -18 8
-18 46 0 31 -4 43 -11 38 -7 -4 -9 -22 -6 -45 4 -34 2 -39 -14 -39 -16 0 -19
7 -19 46 0 31 -4 43 -11 38 -7 -4 -9 -22 -6 -45 5 -35 3 -39 -16 -39 -20 0
-22 5 -22 55 l0 56 65 -3 65 -3 3 -35z m-345 -47 c9 -9 -13 -34 -24 -27 -14 8
-11 34 4 34 8 0 17 -3 20 -7z m1795 -10 c-4 -22 -22 -20 -26 1 -2 10 3 16 13
16 10 0 15 -7 13 -17z m-1600 -150 c2 -9 -7 -13 -27 -13 -17 0 -31 -4 -31 -10
0 -5 11 -10 25 -10 14 0 25 -4 25 -10 0 -5 -11 -12 -25 -16 -35 -9 -35 -49 0
-58 41 -10 19 -26 -36 -26 -47 0 -66 14 -34 26 8 4 15 16 15 29 0 13 -7 25
-15 29 -8 3 -15 10 -15 16 0 5 7 10 15 10 8 0 15 6 15 13 0 23 24 38 54 35 16
-2 31 -9 34 -15z m1345 -43 c3 -34 10 -67 17 -74 15 -19 1 -26 -58 -29 -30 -1
-55 3 -65 12 -17 14 -22 57 -9 77 13 19 48 33 70 27 13 -3 22 -1 22 6 0 6 -4
11 -10 11 -5 0 -10 7 -10 15 0 8 8 15 19 15 15 0 19 -10 24 -60z m2357 -4 c0
-55 3 -64 20 -69 41 -11 20 -27 -35 -27 -55 0 -76 16 -35 27 16 4 20 14 20 53
0 40 -3 49 -21 53 -29 8 -14 27 22 27 l29 0 0 -64z m418 52 c33 -41 31 -141
-4 -177 -22 -24 -26 -6 -10 43 14 41 14 51 1 89 -8 23 -15 45 -15 50 0 11 17
8 28 -5z m-2622 -13 c4 -8 3 -22 0 -31 -6 -15 -8 -15 -25 0 -11 10 -30 16 -43
14 -20 -3 -23 -9 -23 -43 l0 -40 48 2 c39 1 48 -2 45 -15 -2 -9 -18 -20 -37
-25 -50 -13 -85 16 -89 73 -4 57 17 80 75 80 30 0 45 -5 49 -15z m1734 -5 c0
-16 7 -20 31 -20 38 0 34 -24 -5 -28 -23 -3 -27 -8 -24 -30 3 -25 6 -27 42
-24 46 4 46 -17 1 -30 -40 -10 -75 13 -75 50 0 16 -6 34 -12 40 -9 9 -10 15
-2 20 6 4 13 15 17 25 9 23 27 22 27 -3z m216 5 c4 -8 3 -23 -1 -32 -6 -17 -7
-17 -19 0 -19 25 -65 22 -75 -5 -18 -49 17 -86 64 -68 34 13 35 13 35 -5 0 -8
-12 -18 -27 -22 -64 -17 -103 10 -103 70 0 55 22 77 77 77 30 0 45 -5 49 -15z
m-2837 -32 c3 -2 -1 -9 -7 -15 -7 -7 -12 -35 -12 -64 0 -29 -5 -56 -13 -62
-20 -17 -61 -23 -77 -12 -13 9 -13 11 0 20 8 5 25 10 38 10 12 0 22 4 22 8 0
5 -13 9 -29 9 -44 0 -63 20 -59 62 4 44 33 61 91 54 23 -3 44 -7 46 -10z m139
-6 c3 -12 -3 -17 -20 -17 -26 0 -48 -17 -48 -37 0 -7 11 -13 25 -13 16 0 25
-6 25 -15 0 -12 -13 -15 -55 -15 -52 0 -73 14 -40 26 17 7 20 49 5 59 -21 13
-8 26 25 23 19 -1 38 1 42 5 12 13 38 3 41 -16z m126 2 c42 -33 34 -79 -17
-98 -44 -17 -87 11 -87 56 0 22 42 63 65 63 7 0 24 -9 39 -21z m294 4 c11 -10
23 -37 26 -60 6 -40 5 -43 -17 -43 -21 0 -24 4 -23 43 1 30 -3 42 -13 42 -24
0 -38 -32 -23 -55 17 -28 16 -30 -16 -30 -27 0 -28 1 -28 55 1 52 2 54 31 58
17 2 33 5 36 5 4 1 16 -6 27 -15z m453 1 c26 -13 30 -20 27 -52 -2 -27 -9 -40
-25 -47 -13 -5 -23 -16 -23 -23 0 -10 -4 -10 -16 2 -8 9 -22 16 -29 16 -17 0
-35 31 -35 59 0 19 43 61 62 61 5 0 23 -7 39 -16z m1198 10 c21 -4 31 -12 31
-25 0 -21 -22 -38 -28 -21 -6 18 -62 15 -69 -4 -11 -30 27 -46 75 -30 16 5 22
3 22 -8 0 -18 -30 -36 -58 -36 -30 0 -72 38 -72 65 0 14 11 32 26 44 30 23 29
23 73 15z m164 -22 c9 -8 17 -23 17 -34 0 -15 -8 -18 -47 -18 -32 0 -43 -3
-34 -9 8 -5 30 -7 49 -4 45 8 40 -17 -7 -29 -50 -13 -85 8 -89 54 -3 32 1 39
25 52 30 16 58 13 86 -12z m135 11 c12 -11 22 -35 25 -60 5 -39 3 -43 -17 -43
-20 0 -23 5 -22 43 1 30 -3 42 -13 42 -24 0 -38 -32 -23 -55 17 -28 16 -30
-16 -30 -27 0 -28 1 -28 55 1 52 2 54 31 58 17 2 33 5 36 5 4 1 16 -6 27 -15z
m465 -11 c37 -32 6 -94 -48 -94 -54 0 -85 61 -47 94 33 29 60 29 95 0z m300 0
c37 -32 8 -92 -46 -92 -57 0 -88 58 -49 92 33 29 60 29 95 0z m167 1 c0 -7 -6
-13 -12 -11 -7 1 -23 -2 -35 -6 -30 -10 -30 -44 -1 -48 12 -2 23 -9 26 -15 2
-9 -11 -13 -47 -13 -50 0 -76 15 -47 26 18 7 22 49 6 59 -22 14 -8 25 30 23
22 -1 43 1 46 5 10 10 34 -4 34 -20z m-3918 0 c38 -34 9 -93 -45 -93 -57 0
-86 52 -50 92 20 22 70 23 95 1z m168 0 c0 -9 -6 -13 -15 -9 -21 8 -55 -15
-55 -36 0 -9 9 -18 22 -20 12 -2 23 -9 26 -15 2 -9 -11 -13 -47 -13 -50 0 -76
15 -47 26 18 7 23 64 6 64 -5 0 -10 4 -10 9 0 5 27 10 60 10 48 0 60 -3 60
-16z m132 0 c10 -9 18 -24 18 -35 0 -15 -8 -18 -52 -19 -37 0 -47 -3 -33 -8
11 -5 35 -6 54 -3 26 4 33 2 29 -9 -10 -30 -100 -27 -120 4 -13 20 -9 55 8 71
20 21 73 20 96 -1z m528 -21 c0 -45 4 -52 31 -45 20 6 27 47 9 58 -18 11 -10
25 14 25 21 0 24 -5 29 -52 2 -29 4 -54 2 -56 -1 -1 -23 -3 -49 -4 -52 -3 -66
9 -66 54 0 15 -4 30 -10 33 -18 11 -10 25 15 25 22 0 25 -4 25 -38z m-1160
-57 c0 -8 -7 -15 -15 -15 -8 0 -15 7 -15 15 0 8 7 15 15 15 8 0 15 -7 15 -15z
m2478 -78 c2 -12 -1 -15 -12 -11 -19 7 -22 38 -3 32 6 -3 13 -12 15 -21z
m-2154 -89 c-4 -13 -8 -48 -8 -78 0 -30 4 -65 8 -77 12 -34 -11 -29 -29 7 -27
53 -9 170 26 170 7 0 8 -8 3 -22z m2198 -18 c-2 -19 -6 -37 -8 -40 -9 -8 -24
25 -24 53 0 22 4 28 18 25 13 -3 16 -12 14 -38z m163 -2 c17 -43 15 -86 -7
-134 -16 -35 -43 -32 -32 4 10 32 10 106 -1 145 -12 45 20 33 40 -15z m-2935
-3 c0 -38 -19 -48 -27 -15 -9 35 -23 21 -23 -24 0 -30 5 -46 15 -50 30 -11 14
-26 -30 -26 -44 0 -60 15 -30 26 10 4 15 20 15 50 0 46 -14 59 -23 23 -8 -29
-27 -14 -27 22 l0 29 65 0 65 0 0 -35z m380 15 c0 -16 7 -20 30 -20 38 0 40
-18 3 -22 -24 -3 -28 -8 -28 -33 0 -29 2 -30 38 -27 20 2 37 -1 37 -6 0 -23
-78 -30 -98 -10 -7 7 -12 26 -12 44 0 18 -6 35 -12 37 -9 4 -10 8 -2 14 6 4
13 16 17 26 9 23 27 22 27 -3z m292 -10 c-4 -30 -22 -52 -22 -28 0 7 -3 23 -6
36 -5 17 -2 22 13 22 16 0 19 -5 15 -30z m54 14 c-3 -9 -6 -25 -6 -35 0 -30
-17 -14 -22 21 -4 25 -1 30 15 30 13 0 17 -5 13 -16z m104 7 c0 -6 -4 -13 -10
-16 -20 -12 -10 -35 15 -35 25 0 35 23 15 35 -16 10 -1 25 25 25 23 0 23 -2
18 -55 -4 -34 -2 -60 6 -68 14 -18 4 -27 -31 -27 -28 0 -37 13 -18 25 20 12
10 35 -15 35 -25 0 -35 -23 -15 -35 19 -12 10 -25 -17 -25 l-28 0 0 75 0 75
28 0 c15 0 27 -4 27 -9z m1996 -23 c-10 -52 -19 -53 -31 0 -6 28 -4 32 15 32
20 0 22 -4 16 -32z m-2693 -26 c9 -8 17 -23 17 -34 0 -15 -8 -18 -52 -19 -39
0 -48 -3 -33 -9 11 -5 35 -6 54 -3 26 4 33 3 29 -8 -6 -18 -56 -27 -90 -16
-50 16 -50 88 -1 105 31 10 50 6 76 -16z m900 0 c9 -8 17 -23 17 -34 0 -15 -9
-18 -47 -20 l-48 -2 48 -3 c54 -5 59 -22 10 -36 -37 -11 -86 9 -91 36 -14 70
56 107 111 59z m-807 3 c-3 -9 0 -15 9 -15 8 0 14 6 13 13 -2 7 9 13 25 15 33
4 35 -11 5 -32 l-22 -16 22 -23 c29 -31 28 -39 -5 -35 -16 2 -28 9 -28 16 0 6
-4 12 -10 12 -5 0 -10 -6 -10 -12 0 -7 -12 -14 -27 -16 -34 -4 -35 4 -6 35
l22 23 -22 16 c-31 21 -27 34 9 34 24 0 30 -4 25 -15z m2419 -75 c10 -17 -5
-33 -19 -21 -7 6 -16 8 -19 4 -4 -3 -7 -2 -7 4 0 22 33 32 45 13z m80 -8 c-11
-2 -26 -11 -32 -20 -12 -14 -13 -14 -13 1 0 20 29 37 49 29 13 -5 12 -7 -4
-10z m-1745 -58 c0 -2 -7 -4 -15 -4 -8 0 -15 4 -15 10 0 5 7 7 15 4 8 -4 15
-8 15 -10z m-1342 -86 c7 -7 12 -26 12 -44 0 -18 6 -35 13 -38 10 -5 10 -7 0
-12 -7 -3 -13 -20 -13 -39 0 -34 -22 -61 -40 -50 -8 5 -8 11 1 21 14 17 15
130 0 148 -19 22 6 35 27 14z m2902 -8 c0 -5 -4 -10 -10 -10 -5 0 -10 5 -10
10 0 6 5 10 10 10 6 0 10 -4 10 -10z m268 -1091 c17 0 32 -5 32 -10 0 -5 -8
-9 -19 -9 -14 0 -17 -6 -13 -25 3 -20 -2 -28 -27 -42 -17 -10 -31 -21 -31 -25
0 -5 -4 -8 -10 -8 -5 0 -10 7 -10 15 0 8 5 15 12 15 6 0 8 3 5 7 -4 3 -16 -3
-27 -14 -10 -12 -16 -24 -13 -27 4 -3 -1 -6 -10 -6 -9 0 -22 -9 -30 -20 -8
-11 -17 -17 -20 -13 -4 3 -7 -1 -7 -10 0 -10 -15 -25 -35 -34 -19 -9 -35 -21
-35 -26 0 -5 -7 -6 -16 -3 -12 4 -15 2 -10 -9 3 -8 1 -15 -5 -15 -6 0 -7 -6
-3 -12 5 -8 1 -7 -10 1 -16 13 -17 13 -14 -4 1 -11 -3 -20 -10 -20 -7 0 -16
-5 -20 -11 -4 -6 -24 -19 -44 -29 -21 -9 -36 -21 -33 -25 3 -4 -3 -7 -13 -6
-9 0 -17 -6 -17 -13 0 -8 -9 -25 -20 -37 -18 -21 -21 -21 -37 -7 -10 9 -18 22
-18 29 0 7 -16 22 -35 34 -28 17 -35 28 -35 53 0 17 7 38 15 48 14 15 14 18 0
33 -9 9 -27 16 -41 16 -24 0 -32 14 -14 25 17 11 11 44 -10 55 -43 23 -91 -30
-63 -70 16 -22 16 -23 -10 -16 -103 25 -150 14 -180 -44 -28 -54 -20 -98 41
-224 3 -5 -1 -5 -9 0 -8 5 -24 7 -37 5 -21 -2 -22 0 -13 18 9 16 9 19 -2 15
-7 -2 -26 7 -41 21 -15 14 -36 25 -46 25 -12 0 -17 5 -14 13 2 7 -4 21 -15 31
-11 10 -18 23 -15 27 3 5 -1 9 -9 9 -18 0 -59 39 -52 51 4 5 -8 9 -24 9 -20 0
-30 5 -28 13 1 6 -4 11 -10 10 -7 -2 -13 4 -13 13 0 8 -4 13 -9 10 -12 -8 -61
17 -61 32 0 6 -5 12 -11 12 -5 0 -8 -4 -5 -9 4 -5 -5 -4 -19 2 -14 7 -25 18
-25 26 0 7 -6 11 -15 8 -8 -4 -17 -2 -20 3 -4 6 -15 10 -26 10 -11 0 -22 7
-26 16 -3 8 -12 13 -21 9 -12 -4 -12 -3 -3 8 9 12 5 16 -19 21 -29 5 -60 27
-60 41 0 3 9 3 20 0 11 -4 20 -2 20 4 0 6 -4 11 -10 11 -5 0 -10 4 -10 10 0
16 372 19 1468 9z m107 -9 c3 -5 1 -10 -4 -10 -6 0 -11 5 -11 10 0 6 2 10 4
10 3 0 8 -4 11 -10z m-18 -47 c-9 -9 -20 -13 -24 -9 -4 4 1 14 11 22 25 18 35
8 13 -13z m-674 -462 c15 -15 17 -53 2 -47 -7 2 -28 -6 -46 -18 -48 -32 -66
-37 -79 -22 -13 17 -60 27 -60 13 0 -5 -7 -4 -15 3 -9 7 -14 15 -11 17 2 3 -9
17 -25 32 -16 16 -29 31 -29 33 0 11 252 0 263 -11z m314 -519 c112 -12 112
-35 -1 -46 -190 -20 -965 -11 -988 12 -34 34 32 39 517 40 220 0 432 -2 472
-6z"/>
<path d="M3585 5130 c-3 -5 1 -10 10 -10 9 0 13 5 10 10 -3 6 -8 10 -10 10 -2
0 -7 -4 -10 -10z"/>
<path d="M2030 5230 c-8 -5 -12 -12 -8 -15 9 -9 48 4 48 16 0 12 -21 11 -40
-1z"/>
<path d="M3170 5040 c0 -5 5 -10 10 -10 6 0 10 5 10 10 0 6 -4 10 -10 10 -5 0
-10 -4 -10 -10z"/>
<path d="M3108 4973 c7 -3 16 -2 19 1 4 3 -2 6 -13 5 -11 0 -14 -3 -6 -6z"/>
<path d="M5187 4974 c-4 -4 -7 -16 -7 -26 0 -13 8 -18 31 -18 26 0 30 3 27 23
-3 22 -36 36 -51 21z"/>
<path d="M5343 4973 c9 -2 23 -2 30 0 6 3 -1 5 -18 5 -16 0 -22 -2 -12 -5z"/>
<path d="M2186 4940 c-13 -4 -16 -9 -8 -14 7 -4 19 -3 28 2 21 12 5 22 -20 12z"/>
<path d="M2333 4983 c-18 -6 -16 -50 1 -56 8 -3 22 1 33 8 28 21 -1 62 -34 48z"/>
<path d="M2489 4979 c-10 -6 -7 -9 14 -9 29 0 35 5 14 13 -8 3 -20 1 -28 -4z"/>
<path d="M2795 4980 c-3 -5 3 -10 15 -10 12 0 18 5 15 10 -3 6 -10 10 -15 10
-5 0 -12 -4 -15 -10z"/>
<path d="M3389 4979 c-10 -6 -7 -9 14 -9 29 0 35 5 14 13 -8 3 -20 1 -28 -4z"/>
<path d="M3836 4940 c-13 -4 -16 -9 -8 -14 7 -4 19 -3 28 2 21 12 5 22 -20 12z"/>
<path d="M4135 4980 c-4 -6 6 -10 22 -10 22 0 25 2 13 10 -19 12 -27 12 -35 0z"/>
<path d="M4733 4983 c-18 -6 -16 -50 1 -56 8 -3 22 1 33 8 28 21 -1 62 -34 48z"/>
<path d="M5037 4979 c-37 -21 -2 -68 35 -48 10 5 18 16 18 24 0 21 -32 35 -53
24z"/>
<path d="M2630 4660 c-8 -5 -12 -12 -8 -15 10 -10 49 5 43 16 -8 11 -16 11
-35 -1z"/>
<path d="M2783 4703 c-19 -7 -16 -50 4 -57 24 -10 51 20 37 41 -12 19 -23 24
-41 16z"/>
<path d="M2939 4699 c-10 -6 -7 -9 14 -9 29 0 35 5 14 13 -8 3 -20 1 -28 -4z"/>
<path d="M3386 4660 c-13 -4 -16 -9 -8 -14 7 -4 19 -3 28 2 21 12 5 22 -20 12z"/>
<path d="M3680 4700 c-11 -7 -6 -10 20 -10 26 0 31 3 20 10 -8 5 -17 10 -20
10 -3 0 -12 -5 -20 -10z"/>
<path d="M4277 4649 c8 -8 16 -8 30 0 16 9 14 10 -11 11 -22 0 -27 -3 -19 -11z"/>
<path d="M4581 4701 c-7 -5 -11 -17 -9 -27 4 -25 51 -26 56 -2 4 20 -29 40
-47 29z"/>
<path d="M4602 4493 c-17 -6 -42 -57 -42 -86 0 -13 9 -32 20 -42 19 -17 19
-17 19 26 -1 24 4 57 10 73 13 32 12 35 -7 29z"/>
<path d="M4330 4462 c0 -5 9 -17 20 -27 11 -10 20 -24 20 -32 0 -7 4 -13 10
-13 13 0 24 46 16 66 -5 13 -9 14 -21 4 -10 -9 -15 -9 -15 -1 0 6 -7 11 -15
11 -8 0 -15 -4 -15 -8z"/>
<path d="M4290 4400 c-9 -16 -8 -21 5 -26 23 -9 47 4 43 23 -5 26 -35 28 -48
3z"/>
<path d="M4878 4373 c6 -2 18 -2 25 0 6 3 1 5 -13 5 -14 0 -19 -2 -12 -5z"/>
<path d="M4346 4345 c-16 -12 -17 -15 -4 -15 9 0 18 7 22 15 7 18 6 18 -18 0z"/>
<path d="M3325 4131 c-3 -5 -1 -12 5 -16 5 -3 10 1 10 9 0 18 -6 21 -15 7z"/>
<path d="M3422 4110 c7 -10 14 -18 15 -16 6 6 -9 36 -18 36 -5 0 -4 -9 3 -20z"/>
<path d="M3280 4100 c0 -11 5 -20 10 -20 6 0 10 9 10 20 0 11 -4 20 -10 20 -5
0 -10 -9 -10 -20z"/>
<path d="M3618 4085 c-21 -18 -26 -30 -24 -61 2 -41 11 -64 25 -64 12 0 61 48
61 60 0 5 5 9 12 8 6 -2 14 5 16 15 2 10 -2 17 -12 17 -9 0 -16 6 -16 13 0 7
-8 17 -18 23 -14 9 -23 7 -44 -11z"/>
<path d="M3170 4050 c0 -28 2 -29 20 -18 11 7 16 14 10 16 -5 2 -10 10 -10 18
0 8 -4 14 -10 14 -5 0 -10 -14 -10 -30z"/>
<path d="M3507 4013 c-14 -13 -6 -31 15 -37 32 -8 48 12 24 30 -22 16 -30 17
-39 7z"/>
<path d="M4355 4000 c-3 -5 -1 -10 4 -10 6 0 11 5 11 10 0 6 -2 10 -4 10 -3 0
-8 -4 -11 -10z"/>
<path d="M3600 3941 c0 -6 5 -13 10 -16 6 -3 10 1 10 9 0 9 -4 16 -10 16 -5 0
-10 -4 -10 -9z"/>
<path d="M4382 3941 c4 -13 18 -16 19 -4 0 4 -5 9 -11 12 -7 2 -11 -2 -8 -8z"/>
<path d="M3182 3901 c2 -7 7 -12 11 -12 12 1 9 15 -3 20 -7 2 -11 -2 -8 -8z"/>
<path d="M3737 3884 c-9 -10 2 -24 19 -24 8 0 14 7 14 15 0 15 -21 21 -33 9z"/>
<path d="M3750 3821 c0 -24 13 -33 34 -25 27 10 20 44 -9 44 -18 0 -25 -5 -25
-19z"/>
<path d="M3370 3714 c0 -8 5 -12 10 -9 6 4 8 11 5 16 -9 14 -15 11 -15 -7z"/>
<path d="M4739 4699 c-10 -6 -7 -9 14 -9 29 0 35 5 14 13 -8 3 -20 1 -28 -4z"/>
<path d="M3683 4423 c-18 -7 -16 -50 2 -57 24 -9 45 4 45 29 0 18 -22 40 -33
34 -1 0 -8 -3 -14 -6z"/>
<path d="M2933 4423 c-18 -6 -16 -50 1 -56 8 -3 22 1 33 8 28 21 -1 62 -34 48z"/>
<path d="M3237 4419 c-37 -21 -2 -68 35 -48 10 5 18 16 18 24 0 21 -32 35 -53
24z"/>
<path d="M3985 4416 c-27 -19 -12 -48 22 -44 33 4 42 32 15 47 -14 7 -24 7
-37 -3z"/>
<path d="M5339 4419 c-10 -6 -7 -9 14 -9 29 0 35 5 14 13 -8 3 -20 1 -28 -4z"/>
<path d="M5930 4416 c-27 -33 18 -72 48 -42 13 13 14 20 6 34 -15 23 -38 26
-54 8z"/>
<path d="M6230 4416 c-27 -33 18 -72 48 -42 13 13 14 20 6 34 -15 23 -38 26
-54 8z"/>
<path d="M2482 4418 c-26 -26 1 -65 38 -53 32 10 20 65 -15 65 -6 0 -16 -5
-23 -12z"/>
<path d="M2780 4420 c-11 -7 -6 -10 20 -10 26 0 31 3 20 10 -8 5 -17 10 -20
10 -3 0 -12 -5 -20 -10z"/>
<path d="M2030 4130 c-11 -7 -6 -10 20 -10 26 0 31 3 20 10 -8 5 -17 10 -20
10 -3 0 -12 -5 -20 -10z"/>
<path d="M2939 4129 c-10 -6 -7 -9 14 -9 29 0 35 5 14 13 -8 3 -20 1 -28 -4z"/>
<path d="M3428 2703 c7 -3 16 -2 19 1 4 3 -2 6 -13 5 -11 0 -14 -3 -6 -6z"/>
<path d="M5010 1309 c-136 -28 -1319 -41 -1700 -18 -273 17 -255 17 -258 -7
-7 -50 -39 -49 993 -52 627 -2 971 1 989 7 20 8 26 17 26 40 0 36 -6 40 -50
30z"/>
<path d="M0 90 l0 -90 4100 0 4100 0 0 90 0 90 -4100 0 -4100 0 0 -90z"/>
</g>
</svg>
