<?xml version="1.0" ?><svg height="71.455551" id="svg8" version="1.1" viewBox="0 0 14.06911 18.905949" width="53.174587" xmlns="http://www.w3.org/2000/svg" xmlns:cc="http://creativecommons.org/ns#" xmlns:dc="http://purl.org/dc/elements/1.1/" xmlns:inkscape="http://www.inkscape.org/namespaces/inkscape" xmlns:rdf="http://www.w3.org/1999/02/22-rdf-syntax-ns#" xmlns:sodipodi="http://sodipodi.sourceforge.net/DTD/sodipodi-0.dtd" xmlns:svg="http://www.w3.org/2000/svg"><defs id="defs2"><clipPath clipPathUnits="userSpaceOnUse" id="clipPath23"><rect height="170.00711" id="rect25" style="opacity:1;fill:none;fill-opacity:1;stroke:#000000;stroke-width:1.5;stroke-linecap:round;stroke-linejoin:round;stroke-miterlimit:4;stroke-dasharray:none;stroke-dashoffset:0;stroke-opacity:0.97641512" transform="rotate(90)" width="263.84616" x="6.7847877" y="110.36194"/></clipPath></defs><g id="layer1" transform="translate(91.688812,-527.59759)"><rect height="58.184261" id="rect8011" ry="1.1433572" style="opacity:1;fill:none;fill-opacity:1;stroke:none;stroke-width:1.10699999;stroke-linecap:round;stroke-linejoin:round;stroke-miterlimit:4;stroke-dasharray:none;stroke-dashoffset:0;stroke-opacity:1" width="150.11761" x="-377.22021" y="-198.90477"/></g><g id="g8681" transform="translate(91.688812,-527.59759)"><rect height="58.184261" id="rect8677" ry="1.1433572" style="opacity:1;fill:none;fill-opacity:1;stroke:none;stroke-width:1.10699999;stroke-linecap:round;stroke-linejoin:round;stroke-miterlimit:4;stroke-dasharray:none;stroke-dashoffset:0;stroke-opacity:1" width="150.11761" x="-377.22021" y="-198.90477"/></g><g id="g9233" transform="translate(91.688812,-527.59759)"><rect height="58.184261" id="rect9229" ry="1.1433572" style="opacity:1;fill:none;fill-opacity:1;stroke:none;stroke-width:1.10699999;stroke-linecap:round;stroke-linejoin:round;stroke-miterlimit:4;stroke-dasharray:none;stroke-dashoffset:0;stroke-opacity:1" width="150.11761" x="-377.22021" y="-198.90477"/><rect height="368.83194" id="rect9311" ry="1.1433572" style="opacity:1;fill:none;fill-opacity:1;stroke:none;stroke-width:1.10699999;stroke-linecap:round;stroke-linejoin:round;stroke-miterlimit:4;stroke-dasharray:none;stroke-dashoffset:0;stroke-opacity:1" width="313.2399" x="-594.38983" y="-161.63449"/><path d="m -85.321505,545.63355 -0.04063,-14.12726 1.337624,-1.5e-4 0.07814,14.11531 z" id="path979-8-6-6-8-0-8-4-4-0-5-6-7-4" style="opacity:1;fill:#784421;fill-opacity:1;stroke:#241f1c;stroke-width:0.60761064;stroke-linecap:round;stroke-linejoin:round;stroke-miterlimit:4;stroke-dasharray:none;stroke-dashoffset:0;stroke-opacity:1"/><ellipse cx="-84.893845" cy="546.19244" id="path981-7-0-6-1-3-8-1" rx="3.877409" ry="0.31109855" style="opacity:1;fill:#b3b3b3;fill-opacity:1;stroke:none;stroke-width:0.79707766;stroke-linecap:round;stroke-linejoin:round;stroke-miterlimit:4;stroke-dasharray:none;stroke-dashoffset:0;stroke-opacity:1"/><path d="m -87.189387,545.8341 h 4.700145" id="path977-8-5-8-4-7-9-1" style="opacity:1;fill:none;fill-opacity:1;stroke:#241f1c;stroke-width:0.51981038;stroke-linecap:round;stroke-linejoin:round;stroke-miterlimit:4;stroke-dasharray:none;stroke-dashoffset:0;stroke-opacity:1"/><ellipse cx="-84.577797" cy="538.13971" id="path5163-5-0" rx="2.2207878" ry="2.2078762" style="opacity:1;fill:#2ca02c;fill-opacity:1;stroke:#241f1c;stroke-width:0.80890197;stroke-linecap:round;stroke-linejoin:round;stroke-miterlimit:4;stroke-dasharray:none;stroke-dashoffset:0;stroke-opacity:1"/><path d="m -84.465785,534.89757 c -0.06329,10e-4 -0.126189,0.006 -0.188452,0.0156 -0.346533,-0.0481 -0.711272,0.0145 -1.039065,0.20386 l -4.777253,2.75806 c -0.781935,0.45146 -1.048001,1.4445 -0.596556,2.22645 0.45147,0.78195 1.444396,1.04801 2.226344,0.59654 l 4.18653,-2.4171 4.186493,2.41698 c 0.781947,0.45146 1.774901,0.1854 2.226332,-0.59654 0.45147,-0.78195 0.185416,-1.77487 -0.596531,-2.22633 l -4.777136,-2.75805 c -0.2688,-0.15519 -0.562606,-0.22568 -0.850706,-0.2195 z" id="rect5090-0-5" style="opacity:1;fill:#2ca02c;fill-opacity:1;stroke:#241f1c;stroke-width:0.80890197;stroke-linecap:round;stroke-linejoin:round;stroke-miterlimit:4;stroke-dasharray:none;stroke-dashoffset:0;stroke-opacity:1"/><path d="m -84.477441,531.50614 c -0.05925,0.001 -0.118243,0.006 -0.176796,0.0158 -0.32511,-0.0486 -0.667268,0.0146 -0.974773,0.20546 l -4.481702,2.77973 c -0.733569,0.455 -0.983187,1.45584 -0.559651,2.24395 0.423524,0.78811 1.355036,1.05624 2.088604,0.60123 l 3.927522,-2.4361 3.927499,2.43599 c 0.733567,0.45501 1.665079,0.18684 2.088615,-0.60124 0.423511,-0.78809 0.173918,-1.78883 -0.559649,-2.24383 l -4.481587,-2.77973 c -0.252171,-0.1564 -0.527809,-0.22747 -0.798082,-0.22122 z" id="rect5090-3-4-6" style="opacity:1;fill:#37c837;fill-opacity:1;stroke:#241f1c;stroke-width:1.01823282;stroke-linecap:round;stroke-linejoin:round;stroke-miterlimit:4;stroke-dasharray:none;stroke-dashoffset:0;stroke-opacity:1"/><path d="m -84.603578,528.10699 c -0.05091,10e-4 -0.10131,0.006 -0.151441,0.0159 -0.278412,-0.0487 -0.571461,0.0148 -0.834832,0.20655 l -3.838343,2.79409 c -0.628266,0.45735 -0.842034,1.46341 -0.479313,2.25559 0.362747,0.79217 1.160515,1.0617 1.788795,0.60435 l 3.363693,-2.4487 3.36372,2.44857 c 0.628266,0.45737 1.426049,0.18781 1.788781,-0.60434 0.362734,-0.79217 0.148967,-1.79812 -0.479311,-2.25547 l -3.838227,-2.79409 c -0.215981,-0.15721 -0.452057,-0.22864 -0.683522,-0.22237 z" id="rect5090-3-7-8-7" style="opacity:1;fill:#5fd35f;fill-opacity:1;stroke:#241f1c;stroke-width:1.01823282;stroke-linecap:round;stroke-linejoin:round;stroke-miterlimit:4;stroke-dasharray:none;stroke-dashoffset:0;stroke-opacity:1"/><path d="m -85.321505,545.63355 -0.04063,-14.12726 1.337624,-1.5e-4 0.07814,14.11531 z" id="path8337" style="opacity:1;fill:#784421;fill-opacity:1;stroke:#241f1c;stroke-width:0.60761064;stroke-linecap:round;stroke-linejoin:round;stroke-miterlimit:4;stroke-dasharray:none;stroke-dashoffset:0;stroke-opacity:1"/><ellipse cx="-84.893845" cy="546.19244" id="ellipse8341" rx="3.877409" ry="0.31109855" style="opacity:1;fill:#b3b3b3;fill-opacity:1;stroke:none;stroke-width:0.79707766;stroke-linecap:round;stroke-linejoin:round;stroke-miterlimit:4;stroke-dasharray:none;stroke-dashoffset:0;stroke-opacity:1"/><path d="m -87.189387,545.8341 h 4.700145" id="path8343" style="opacity:1;fill:none;fill-opacity:1;stroke:#241f1c;stroke-width:0.51981038;stroke-linecap:round;stroke-linejoin:round;stroke-miterlimit:4;stroke-dasharray:none;stroke-dashoffset:0;stroke-opacity:1"/><ellipse cx="-84.577797" cy="538.13971" id="ellipse8345" rx="2.2207878" ry="2.2078762" style="opacity:1;fill:#2ca02c;fill-opacity:1;stroke:#241f1c;stroke-width:0.80890197;stroke-linecap:round;stroke-linejoin:round;stroke-miterlimit:4;stroke-dasharray:none;stroke-dashoffset:0;stroke-opacity:1"/><path d="m -84.465785,534.89757 c -0.06329,10e-4 -0.126189,0.006 -0.188452,0.0156 -0.346533,-0.0481 -0.711272,0.0145 -1.039065,0.20386 l -4.777253,2.75806 c -0.781935,0.45146 -1.048001,1.4445 -0.596556,2.22645 0.45147,0.78195 1.444396,1.04801 2.226344,0.59654 l 4.18653,-2.4171 4.186493,2.41698 c 0.781947,0.45146 1.774901,0.1854 2.226332,-0.59654 0.45147,-0.78195 0.185416,-1.77487 -0.596531,-2.22633 l -4.777136,-2.75805 c -0.2688,-0.15519 -0.562606,-0.22568 -0.850706,-0.2195 z" id="path8347" style="opacity:1;fill:#2ca02c;fill-opacity:1;stroke:#241f1c;stroke-width:0.80890197;stroke-linecap:round;stroke-linejoin:round;stroke-miterlimit:4;stroke-dasharray:none;stroke-dashoffset:0;stroke-opacity:1"/><path d="m -84.477441,531.50614 c -0.05925,0.001 -0.118243,0.006 -0.176796,0.0158 -0.32511,-0.0486 -0.667268,0.0146 -0.974773,0.20546 l -4.481702,2.77973 c -0.733569,0.455 -0.983187,1.45584 -0.559651,2.24395 0.423524,0.78811 1.355036,1.05624 2.088604,0.60123 l 3.927522,-2.4361 3.927499,2.43599 c 0.733567,0.45501 1.665079,0.18684 2.088615,-0.60124 0.423511,-0.78809 0.173918,-1.78883 -0.559649,-2.24383 l -4.481587,-2.77973 c -0.252171,-0.1564 -0.527809,-0.22747 -0.798082,-0.22122 z" id="path8349" style="opacity:1;fill:#37c837;fill-opacity:1;stroke:#241f1c;stroke-width:1.01823282;stroke-linecap:round;stroke-linejoin:round;stroke-miterlimit:4;stroke-dasharray:none;stroke-dashoffset:0;stroke-opacity:1"/><path d="m -84.603578,528.10699 c -0.05091,10e-4 -0.10131,0.006 -0.151441,0.0159 -0.278412,-0.0487 -0.571461,0.0148 -0.834832,0.20655 l -3.838343,2.79409 c -0.628266,0.45735 -0.842034,1.46341 -0.479313,2.25559 0.362747,0.79217 1.160515,1.0617 1.788795,0.60435 l 3.363693,-2.4487 3.36372,2.44857 c 0.628266,0.45737 1.426049,0.18781 1.788781,-0.60434 0.362734,-0.79217 0.148967,-1.79812 -0.479311,-2.25547 l -3.838227,-2.79409 c -0.215981,-0.15721 -0.452057,-0.22864 -0.683522,-0.22237 z" id="path8351" style="opacity:1;fill:#5fd35f;fill-opacity:1;stroke:#241f1c;stroke-width:1.01823282;stroke-linecap:round;stroke-linejoin:round;stroke-miterlimit:4;stroke-dasharray:none;stroke-dashoffset:0;stroke-opacity:1"/></g></svg>