<?xml version="1.0" standalone="no"?>
<!DOCTYPE svg PUBLIC "-//W3C//DTD SVG 20010904//EN"
 "http://www.w3.org/TR/2001/REC-SVG-20010904/DTD/svg10.dtd">
<svg version="1.0" xmlns="http://www.w3.org/2000/svg"
 width="1024.000000pt" height="1024.000000pt" viewBox="0 0 1024.000000 1024.000000"
 preserveAspectRatio="xMidYMid meet">
<metadata>
Created by potrace 1.14, written by Peter Selinger 2001-2017
</metadata>
<g transform="translate(0.000000,1024.000000) scale(0.100000,-0.100000)"
fill="#000000" stroke="none">
<path d="M1955 8864 c-179 -38 -328 -116 -453 -238 -98 -94 -181 -213 -217
-311 -10 -27 -22 -54 -26 -60 -11 -16 -29 -143 -31 -227 -2 -57 -6 -74 -15
-67 -8 7 -15 4 -22 -8 -9 -15 -10 -13 -5 10 6 27 5 28 -22 21 -26 -6 -27 -5
-16 8 11 13 11 18 0 24 -7 4 -10 4 -6 -1 12 -13 -12 -34 -30 -28 -15 6 -16 5
-2 -12 14 -17 13 -18 -2 -12 -12 4 -18 0 -21 -16 l-4 -22 -2 23 c0 12 -6 22
-12 22 -5 0 -7 -6 -3 -12 6 -10 4 -10 -8 0 -14 11 -18 10 -27 -5 -9 -15 -10
-13 -5 10 6 27 5 28 -22 21 -26 -6 -27 -5 -16 8 11 13 11 18 0 24 -7 4 -10 4
-6 -1 12 -13 -12 -34 -30 -28 -15 6 -16 5 -2 -12 14 -17 13 -18 -2 -12 -12 4
-18 0 -21 -16 l-4 -22 -2 23 c0 12 -6 22 -12 22 -5 0 -7 -6 -3 -12 6 -10 4
-10 -8 0 -14 11 -18 10 -27 -5 -9 -15 -10 -13 -5 10 6 27 5 28 -22 21 -26 -6
-27 -5 -16 8 11 13 11 18 0 24 -7 4 -10 4 -6 -1 12 -13 -12 -34 -30 -28 -15 6
-16 5 -2 -12 14 -17 13 -18 -2 -12 -12 4 -18 0 -21 -16 l-4 -22 -2 23 c0 12
-6 22 -12 22 -5 0 -7 -6 -3 -12 6 -10 4 -10 -8 0 -14 11 -18 10 -27 -5 -9 -15
-10 -13 -5 10 6 27 5 28 -22 21 -26 -6 -27 -5 -16 8 11 13 11 18 0 24 -7 4
-10 4 -6 -1 12 -13 -12 -34 -30 -28 -15 6 -16 5 -2 -12 14 -17 13 -18 -2 -12
-12 4 -18 0 -21 -16 l-4 -22 -2 23 c0 12 -6 22 -12 22 -5 0 -7 -6 -3 -12 6
-10 4 -10 -8 0 -14 11 -18 10 -27 -5 -9 -15 -10 -13 -5 10 6 27 5 28 -22 21
-26 -6 -27 -5 -16 8 11 13 11 18 0 24 -7 4 -10 4 -6 -1 12 -13 -12 -34 -30
-28 -15 6 -16 5 -2 -12 14 -17 13 -18 -2 -12 -12 4 -18 0 -21 -16 l-4 -22 -2
23 c0 12 -6 22 -12 22 -5 0 -7 -6 -3 -12 6 -10 4 -10 -8 0 -14 11 -18 10 -27
-5 -9 -15 -10 -13 -5 10 6 27 5 28 -22 21 -26 -6 -27 -5 -16 8 11 13 11 18 0
24 -7 4 -10 4 -6 -1 12 -13 -12 -34 -30 -28 -15 6 -16 5 -2 -12 14 -17 13 -18
-2 -12 -12 4 -18 0 -21 -16 l-4 -22 -2 23 c0 12 -6 22 -12 22 -5 0 -7 -6 -3
-12 6 -10 4 -10 -8 0 -14 11 -18 10 -27 -5 -9 -15 -10 -13 -5 10 6 27 5 28
-22 21 -26 -6 -27 -5 -16 8 11 13 11 18 0 24 -7 4 -10 4 -6 -1 12 -13 -12 -34
-30 -28 -15 6 -16 5 -2 -12 14 -17 13 -18 -2 -12 -12 4 -18 0 -21 -16 l-4 -22
-2 23 c0 12 -6 22 -12 22 -5 0 -7 -6 -3 -12 6 -10 4 -10 -8 0 -14 11 -18 10
-27 -5 -9 -15 -10 -13 -5 10 6 27 5 28 -22 21 -26 -6 -27 -5 -16 8 10 13 10
18 1 24 -7 4 -9 3 -6 -3 4 -6 0 -16 -8 -23 -16 -13 -21 -55 -6 -45 5 3 13 1
16 -5 4 -6 1 -9 -7 -8 -11 3 -13 -678 -16 -3964 l-2 -3968 5120 0 5120 0 0
3970 c0 3169 -3 3970 -12 3970 -10 0 -10 2 0 9 11 7 11 9 -2 14 -10 4 -16 -1
-19 -16 l-4 -22 -2 23 c0 12 -6 22 -12 22 -5 0 -7 -6 -3 -12 6 -10 4 -10 -8 0
-14 11 -18 10 -27 -5 -9 -15 -10 -13 -5 10 6 27 5 28 -22 21 -26 -6 -27 -5
-16 8 11 13 11 18 0 24 -7 4 -10 4 -6 -1 12 -13 -12 -34 -30 -28 -15 6 -16 5
-2 -12 14 -17 13 -18 -2 -12 -12 4 -18 0 -21 -16 l-4 -22 -2 23 c0 12 -6 22
-12 22 -5 0 -7 -6 -3 -12 6 -10 4 -10 -8 0 -14 11 -18 10 -27 -5 -9 -15 -10
-13 -5 10 6 27 5 28 -22 21 -26 -6 -27 -5 -16 8 11 13 11 18 0 24 -7 4 -10 4
-6 -1 12 -13 -12 -34 -30 -28 -15 6 -16 5 -2 -12 14 -17 13 -18 -2 -12 -12 4
-18 0 -21 -16 l-4 -22 -2 23 c0 12 -6 22 -12 22 -5 0 -7 -6 -3 -12 6 -10 4
-10 -8 0 -14 11 -18 10 -27 -5 -9 -15 -10 -13 -5 10 6 27 5 28 -22 21 -26 -6
-27 -5 -16 8 11 13 11 18 0 24 -7 4 -10 4 -6 -1 12 -13 -12 -34 -30 -28 -15 6
-16 5 -2 -12 14 -17 13 -18 -2 -12 -12 4 -18 0 -21 -16 l-4 -22 -2 23 c0 12
-6 22 -12 22 -5 0 -7 -6 -3 -12 6 -10 4 -10 -8 0 -14 11 -18 10 -27 -5 -9 -15
-10 -13 -5 10 6 27 5 28 -22 21 -26 -6 -27 -5 -16 8 11 13 11 18 0 24 -7 4
-10 4 -6 -1 12 -13 -12 -34 -30 -28 -15 6 -16 5 -2 -12 14 -17 13 -18 -2 -12
-12 4 -18 0 -21 -16 l-4 -22 -2 23 c0 12 -6 22 -12 22 -5 0 -7 -6 -3 -12 6
-10 4 -10 -8 0 -14 11 -18 10 -27 -5 -9 -15 -10 -13 -5 10 6 27 5 28 -22 21
-26 -6 -27 -5 -16 8 11 13 11 18 0 24 -7 4 -10 4 -6 -1 12 -13 -12 -34 -30
-28 -15 6 -16 5 -2 -12 14 -17 13 -18 -2 -12 -12 4 -18 0 -21 -16 l-4 -22 -2
23 c0 12 -6 22 -12 22 -5 0 -7 -6 -3 -12 6 -10 4 -10 -8 0 -14 11 -18 10 -27
-5 -9 -15 -10 -13 -5 10 6 27 5 28 -22 21 -26 -6 -27 -5 -16 8 11 13 11 18 0
24 -7 4 -10 4 -6 -1 12 -13 -12 -34 -30 -28 -15 6 -16 5 -2 -12 14 -17 13 -18
-2 -12 -12 4 -18 0 -21 -16 l-4 -22 -2 23 c0 12 -6 22 -12 22 -5 0 -7 -6 -3
-12 6 -10 4 -10 -8 0 -14 11 -18 10 -27 -5 -9 -15 -10 -13 -5 10 6 27 5 28
-22 21 -26 -6 -27 -5 -16 8 11 13 11 18 0 24 -7 4 -10 4 -6 -1 12 -13 -12 -34
-30 -28 -15 6 -16 5 -2 -12 14 -17 13 -18 -2 -12 -12 4 -18 0 -21 -16 l-4 -22
-2 23 c0 12 -6 22 -12 22 -5 0 -7 -6 -3 -12 6 -10 4 -10 -8 0 -14 11 -18 10
-27 -5 -9 -15 -10 -13 -5 10 3 15 2 27 -3 27 -4 0 -10 30 -11 67 -4 84 -18
161 -41 218 -6 17 -17 44 -23 60 -50 126 -201 305 -333 392 -73 48 -129 75
-250 119 -48 18 -183 19 -3220 20 -1743 1 -3179 0 -3190 -2z m6215 -605 c69
-11 110 -35 168 -96 17 -20 32 -41 32 -49 0 -8 4 -14 9 -14 29 0 31 -137 31
-1775 0 -1598 -3 -1758 -29 -1774 -4 -4 -11 -15 -15 -27 -9 -30 -70 -88 -114
-109 -20 -10 -45 -22 -54 -26 -10 -5 -1136 -9 -2502 -9 l-2485 0 -3 373 c-3
359 -4 374 -26 428 -27 68 -88 140 -148 175 -89 52 -107 54 -676 54 l-528 0 0
1288 c0 1265 3 1402 31 1402 5 0 9 6 9 14 0 17 53 75 101 110 20 14 59 30 90
35 80 13 6027 14 6109 0z m-8121 -286 c14 10 14 10 4 -4 -7 -9 -9 -19 -5 -24
4 -4 -3 -1 -15 6 -13 8 -23 18 -23 23 0 6 5 5 12 -2 9 -9 15 -9 27 1z m160 0
c14 10 14 10 4 -4 -7 -9 -9 -19 -5 -24 4 -4 -3 -1 -15 6 -13 8 -23 18 -23 23
0 6 5 5 12 -2 9 -9 15 -9 27 1z m160 0 c14 10 14 10 4 -4 -7 -9 -9 -19 -5 -24
4 -4 -3 -1 -15 6 -13 8 -23 18 -23 23 0 6 5 5 12 -2 9 -9 15 -9 27 1z m160 0
c14 10 14 10 4 -4 -7 -9 -9 -19 -5 -24 4 -4 -3 -1 -15 6 -13 8 -23 18 -23 23
0 6 5 5 12 -2 9 -9 15 -9 27 1z m160 0 c14 10 14 10 4 -4 -7 -9 -9 -19 -5 -24
4 -4 -3 -1 -15 6 -13 8 -23 18 -23 23 0 6 5 5 12 -2 9 -9 15 -9 27 1z m160 0
c14 10 14 10 4 -4 -7 -9 -9 -19 -5 -24 4 -4 -3 -1 -15 6 -13 8 -23 18 -23 23
0 6 5 5 12 -2 9 -9 15 -9 27 1z m160 0 c14 10 14 10 4 -4 -7 -9 -9 -19 -5 -24
4 -4 -3 -1 -15 6 -13 8 -23 18 -23 23 0 6 5 5 12 -2 9 -9 15 -9 27 1z m160 0
c14 10 14 10 4 -4 -7 -9 -9 -19 -5 -24 4 -4 -3 -1 -15 6 -13 8 -23 18 -23 23
0 6 5 5 12 -2 9 -9 15 -9 27 1z m8000 0 c14 10 14 10 4 -4 -7 -9 -9 -19 -5
-24 4 -4 -3 -1 -15 6 -13 8 -23 18 -23 23 0 6 5 5 12 -2 9 -9 15 -9 27 1z
m160 0 c14 10 14 10 4 -4 -7 -9 -9 -19 -5 -24 4 -4 -3 -1 -15 6 -13 8 -23 18
-23 23 0 6 5 5 12 -2 9 -9 15 -9 27 1z m160 0 c14 10 14 10 4 -4 -7 -9 -9 -19
-5 -24 4 -4 -3 -1 -15 6 -13 8 -23 18 -23 23 0 6 5 5 12 -2 9 -9 15 -9 27 1z
m160 0 c14 10 14 10 4 -4 -7 -9 -9 -19 -5 -24 4 -4 -3 -1 -15 6 -13 8 -23 18
-23 23 0 6 5 5 12 -2 9 -9 15 -9 27 1z m160 0 c14 10 14 10 4 -4 -7 -9 -9 -19
-5 -24 4 -4 -3 -1 -15 6 -13 8 -23 18 -23 23 0 6 5 5 12 -2 9 -9 15 -9 27 1z
m160 0 c14 10 14 10 4 -4 -7 -9 -9 -19 -5 -24 4 -4 -3 -1 -15 6 -13 8 -23 18
-23 23 0 6 5 5 12 -2 9 -9 15 -9 27 1z m160 0 c14 10 14 10 4 -4 -7 -9 -9 -19
-5 -24 4 -4 -3 -1 -15 6 -13 8 -23 18 -23 23 0 6 5 5 12 -2 9 -9 15 -9 27 1z
m-9943 -36 c4 -3 -4 -4 -16 -2 -30 6 -40 16 -12 12 12 -2 24 -6 28 -10z m160
0 c4 -3 -4 -4 -16 -2 -30 6 -40 16 -12 12 12 -2 24 -6 28 -10z m160 0 c4 -3
-4 -4 -16 -2 -30 6 -40 16 -12 12 12 -2 24 -6 28 -10z m160 0 c4 -3 -4 -4 -16
-2 -30 6 -40 16 -12 12 12 -2 24 -6 28 -10z m160 0 c4 -3 -4 -4 -16 -2 -30 6
-40 16 -12 12 12 -2 24 -6 28 -10z m160 0 c4 -3 -4 -4 -16 -2 -30 6 -40 16
-12 12 12 -2 24 -6 28 -10z m160 0 c4 -3 -4 -4 -16 -2 -30 6 -40 16 -12 12 12
-2 24 -6 28 -10z m8000 0 c4 -3 -4 -4 -16 -2 -30 6 -40 16 -12 12 12 -2 24 -6
28 -10z m160 0 c4 -3 -4 -4 -16 -2 -30 6 -40 16 -12 12 12 -2 24 -6 28 -10z
m160 0 c4 -3 -4 -4 -16 -2 -30 6 -40 16 -12 12 12 -2 24 -6 28 -10z m160 0 c4
-3 -4 -4 -16 -2 -30 6 -40 16 -12 12 12 -2 24 -6 28 -10z m160 0 c4 -3 -4 -4
-16 -2 -30 6 -40 16 -12 12 12 -2 24 -6 28 -10z m160 0 c4 -3 -4 -4 -16 -2
-30 6 -40 16 -12 12 12 -2 24 -6 28 -10z m160 0 c4 -3 -4 -4 -16 -2 -30 6 -40
16 -12 12 12 -2 24 -6 28 -10z m-9999 -12 c0 -8 -4 -12 -9 -9 -5 3 -6 10 -3
15 9 13 12 11 12 -6z m160 0 c0 -8 -4 -12 -9 -9 -5 3 -6 10 -3 15 9 13 12 11
12 -6z m160 0 c0 -8 -4 -12 -9 -9 -5 3 -6 10 -3 15 9 13 12 11 12 -6z m160 0
c0 -8 -4 -12 -9 -9 -5 3 -6 10 -3 15 9 13 12 11 12 -6z m160 0 c0 -8 -4 -12
-9 -9 -5 3 -6 10 -3 15 9 13 12 11 12 -6z m160 0 c0 -8 -4 -12 -9 -9 -5 3 -6
10 -3 15 9 13 12 11 12 -6z m160 0 c0 -8 -4 -12 -9 -9 -5 3 -6 10 -3 15 9 13
12 11 12 -6z m160 0 c0 -8 -4 -12 -9 -9 -5 3 -6 10 -3 15 9 13 12 11 12 -6z
m7840 0 c0 -8 -4 -12 -9 -9 -5 3 -6 10 -3 15 9 13 12 11 12 -6z m160 0 c0 -8
-4 -12 -9 -9 -5 3 -6 10 -3 15 9 13 12 11 12 -6z m160 0 c0 -8 -4 -12 -9 -9
-5 3 -6 10 -3 15 9 13 12 11 12 -6z m160 0 c0 -8 -4 -12 -9 -9 -5 3 -6 10 -3
15 9 13 12 11 12 -6z m160 0 c0 -8 -4 -12 -9 -9 -5 3 -6 10 -3 15 9 13 12 11
12 -6z m160 0 c0 -8 -4 -12 -9 -9 -5 3 -6 10 -3 15 9 13 12 11 12 -6z m160 0
c0 -8 -4 -12 -9 -9 -5 3 -6 10 -3 15 9 13 12 11 12 -6z m160 0 c0 -8 -4 -12
-9 -9 -5 3 -6 10 -3 15 9 13 12 11 12 -6z m-8709 -2874 c8 -4 12 -19 10 -32
-4 -29 -45 -34 -61 -7 -19 30 19 60 51 39z m641 -24 c26 -32 -8 -37 -270 -37
-201 0 -259 3 -268 13 -26 32 8 37 270 37 201 0 259 -3 268 -13z m966 -2057
l0 -1715 -1235 0 -1235 0 -3 1705 c-1 938 0 1711 3 1718 3 10 256 12 1237 10
l1233 -3 0 -1715z m2185 1063 c25 -9 47 -20 50 -24 3 -3 15 -9 27 -13 38 -12
135 -121 165 -186 41 -90 51 -212 24 -300 -31 -101 -125 -226 -185 -245 -12
-3 -21 -11 -21 -16 0 -5 -6 -9 -12 -9 -7 0 -25 -6 -39 -14 -54 -28 -154 -39
-226 -26 -36 7 -78 19 -92 26 -14 8 -32 14 -38 14 -7 0 -13 4 -13 9 0 5 -9 13
-21 16 -12 4 -43 28 -70 54 -130 126 -167 324 -91 491 32 68 129 176 168 186
13 4 24 9 24 13 0 6 75 33 125 45 40 10 181 -3 225 -21z"/>
<path d="M5510 7649 c-69 -24 -160 -70 -160 -81 0 -4 -6 -8 -13 -8 -17 0 -115
-97 -153 -150 -62 -89 -94 -178 -100 -275 -7 -111 -3 -114 88 -91 120 31 189
69 276 154 68 66 142 184 142 227 0 7 4 15 9 17 12 4 30 153 24 196 -5 27 -9
32 -32 31 -14 -1 -51 -10 -81 -20z"/>
<path d="M4543 7036 c-28 -6 -55 -14 -59 -18 -4 -5 -14 -8 -22 -8 -18 0 -102
-40 -120 -57 -7 -7 -18 -13 -23 -13 -31 0 -212 -191 -225 -237 -3 -13 -10 -23
-14 -23 -5 0 -11 -13 -15 -30 -4 -16 -10 -30 -14 -30 -9 0 -36 -90 -56 -185
-21 -102 -19 -297 5 -425 23 -119 42 -196 53 -206 4 -4 7 -17 7 -28 1 -12 9
-39 20 -61 11 -22 19 -45 20 -51 0 -12 90 -196 99 -204 3 -3 15 -23 26 -44 11
-22 25 -44 30 -50 6 -6 27 -36 47 -66 43 -65 189 -216 218 -225 11 -3 20 -11
20 -16 0 -5 6 -9 13 -9 6 0 26 -8 42 -17 38 -21 226 -25 233 -5 2 6 10 12 19
12 8 0 29 6 46 14 71 32 158 55 228 62 82 7 201 -8 245 -31 16 -8 35 -15 42
-15 7 0 20 -4 30 -10 68 -37 101 -45 182 -44 59 0 94 6 115 17 17 9 36 17 43
17 6 0 12 4 12 9 0 5 8 12 18 15 26 9 162 147 202 206 8 12 20 28 25 34 19 21
105 154 112 172 3 11 10 21 13 24 4 3 28 49 55 102 51 106 51 119 -3 133 -15
4 -29 10 -32 13 -3 4 -23 19 -45 33 -92 60 -173 168 -216 289 -20 55 -23 85
-23 190 0 69 4 141 10 160 12 40 63 148 78 168 33 41 132 142 141 142 6 1 21
10 34 20 l23 20 -22 33 c-12 17 -43 48 -68 67 -25 19 -51 40 -57 45 -22 20
-83 53 -165 88 -49 22 -131 37 -197 37 -63 0 -182 -18 -198 -30 -5 -4 -26 -11
-45 -15 -19 -4 -39 -11 -45 -15 -5 -4 -26 -11 -45 -15 -19 -4 -41 -12 -49 -19
-9 -7 -59 -11 -131 -11 -72 0 -122 4 -131 11 -8 7 -30 15 -49 19 -19 4 -39 11
-45 15 -11 8 -66 23 -160 45 -71 17 -160 17 -232 1z"/>
<path d="M2053 3677 c-56 -21 -118 -72 -155 -129 -43 -64 -74 -163 -64 -203 7
-26 9 -27 49 -21 81 13 173 75 222 150 22 33 45 121 45 174 0 41 -1 42 -32 41
-18 0 -47 -6 -65 -12z"/>
<path d="M1481 3334 c-65 -23 -111 -55 -168 -118 -85 -92 -120 -218 -110 -391
4 -72 14 -126 32 -181 48 -143 174 -358 240 -408 84 -64 143 -70 263 -26 104
38 151 38 276 0 125 -38 151 -38 209 1 87 57 223 226 259 322 18 48 18 50 0
63 -72 50 -122 99 -152 150 -33 55 -35 63 -35 149 0 83 3 95 35 154 19 35 53
80 77 99 24 20 43 42 43 48 0 17 -72 80 -120 104 -67 34 -158 53 -223 46 -32
-3 -100 -20 -152 -37 l-93 -32 -49 21 c-120 51 -248 65 -332 36z"/>
<path d="M152 8014 c-7 -8 -18 -11 -24 -8 -7 4 -8 2 -4 -4 4 -7 2 -12 -3 -12
-6 0 -11 5 -11 10 0 6 -6 5 -14 -2 -8 -7 -12 -17 -9 -22 3 -4 9 -3 13 4 5 8
10 9 14 2 4 -7 17 -1 33 14 14 13 24 26 22 28 -2 2 -10 -2 -17 -10z"/>
<path d="M312 8014 c-7 -8 -18 -11 -24 -8 -7 4 -8 2 -4 -4 4 -7 2 -12 -3 -12
-6 0 -11 5 -11 10 0 6 -6 5 -14 -2 -8 -7 -12 -17 -9 -22 3 -4 9 -3 13 4 5 8
10 9 14 2 4 -7 17 -1 33 14 14 13 24 26 22 28 -2 2 -10 -2 -17 -10z"/>
<path d="M472 8014 c-7 -8 -18 -11 -24 -8 -7 4 -8 2 -4 -4 4 -7 2 -12 -3 -12
-6 0 -11 5 -11 10 0 6 -6 5 -14 -2 -8 -7 -12 -17 -9 -22 3 -4 9 -3 13 4 5 8
10 9 14 2 4 -7 17 -1 33 14 14 13 24 26 22 28 -2 2 -10 -2 -17 -10z"/>
<path d="M632 8014 c-7 -8 -18 -11 -24 -8 -7 4 -8 2 -4 -4 4 -7 2 -12 -3 -12
-6 0 -11 5 -11 10 0 6 -6 5 -14 -2 -8 -7 -12 -17 -9 -22 3 -4 9 -3 13 4 5 8
10 9 14 2 4 -7 17 -1 33 14 14 13 24 26 22 28 -2 2 -10 -2 -17 -10z"/>
<path d="M792 8014 c-7 -8 -18 -11 -24 -8 -7 4 -8 2 -4 -4 4 -7 2 -12 -3 -12
-6 0 -11 5 -11 10 0 6 -6 5 -14 -2 -8 -7 -12 -17 -9 -22 3 -4 9 -3 13 4 5 8
10 9 14 2 4 -7 17 -1 33 14 14 13 24 26 22 28 -2 2 -10 -2 -17 -10z"/>
<path d="M952 8014 c-7 -8 -18 -11 -24 -8 -7 4 -8 2 -4 -4 4 -7 2 -12 -3 -12
-6 0 -11 5 -11 10 0 6 -6 5 -14 -2 -8 -7 -12 -17 -9 -22 3 -4 9 -3 13 4 5 8
10 9 14 2 4 -7 17 -1 33 14 14 13 24 26 22 28 -2 2 -10 -2 -17 -10z"/>
<path d="M1112 8014 c-7 -8 -18 -11 -24 -8 -7 4 -8 2 -4 -4 4 -7 2 -12 -3 -12
-6 0 -11 5 -11 10 0 6 -6 5 -14 -2 -8 -7 -12 -17 -9 -22 3 -4 9 -3 13 4 5 8
10 9 14 2 4 -7 17 -1 33 14 14 13 24 26 22 28 -2 2 -10 -2 -17 -10z"/>
<path d="M9112 8014 c-7 -8 -18 -11 -24 -8 -7 4 -8 2 -4 -4 4 -7 2 -12 -3 -12
-6 0 -11 5 -11 10 0 6 -6 5 -14 -2 -8 -7 -12 -17 -9 -22 3 -4 9 -3 13 4 5 8
10 9 14 2 4 -7 17 -1 33 14 14 13 24 26 22 28 -2 2 -10 -2 -17 -10z"/>
<path d="M9272 8014 c-7 -8 -18 -11 -24 -8 -7 4 -8 2 -4 -4 4 -7 2 -12 -3 -12
-6 0 -11 5 -11 10 0 6 -6 5 -14 -2 -8 -7 -12 -17 -9 -22 3 -4 9 -3 13 4 5 8
10 9 14 2 4 -7 17 -1 33 14 14 13 24 26 22 28 -2 2 -10 -2 -17 -10z"/>
<path d="M9432 8014 c-7 -8 -18 -11 -24 -8 -7 4 -8 2 -4 -4 4 -7 2 -12 -3 -12
-6 0 -11 5 -11 10 0 6 -6 5 -14 -2 -8 -7 -12 -17 -9 -22 3 -4 9 -3 13 4 5 8
10 9 14 2 4 -7 17 -1 33 14 14 13 24 26 22 28 -2 2 -10 -2 -17 -10z"/>
<path d="M9592 8014 c-7 -8 -18 -11 -24 -8 -7 4 -8 2 -4 -4 4 -7 2 -12 -3 -12
-6 0 -11 5 -11 10 0 6 -6 5 -14 -2 -8 -7 -12 -17 -9 -22 3 -4 9 -3 13 4 5 8
10 9 14 2 4 -7 17 -1 33 14 14 13 24 26 22 28 -2 2 -10 -2 -17 -10z"/>
<path d="M9752 8014 c-7 -8 -18 -11 -24 -8 -7 4 -8 2 -4 -4 4 -7 2 -12 -3 -12
-6 0 -11 5 -11 10 0 6 -6 5 -14 -2 -8 -7 -12 -17 -9 -22 3 -4 9 -3 13 4 5 8
10 9 14 2 4 -7 17 -1 33 14 14 13 24 26 22 28 -2 2 -10 -2 -17 -10z"/>
<path d="M9912 8014 c-7 -8 -18 -11 -24 -8 -7 4 -8 2 -4 -4 4 -7 2 -12 -3 -12
-6 0 -11 5 -11 10 0 6 -6 5 -14 -2 -8 -7 -12 -17 -9 -22 3 -4 9 -3 13 4 5 8
10 9 14 2 4 -7 17 -1 33 14 14 13 24 26 22 28 -2 2 -10 -2 -17 -10z"/>
<path d="M10072 8014 c-7 -8 -18 -11 -24 -8 -7 4 -8 2 -4 -4 4 -7 2 -12 -3
-12 -6 0 -11 5 -11 10 0 6 -6 5 -14 -2 -8 -7 -12 -17 -9 -22 3 -4 9 -3 13 4 5
8 10 9 14 2 4 -7 17 -1 33 14 14 13 24 26 22 28 -2 2 -10 -2 -17 -10z"/>
<path d="M10173 7995 c-8 -9 -9 -16 -3 -20 6 -3 10 -1 10 6 0 8 4 8 13 2 8 -7
17 -4 29 8 16 17 16 18 -2 16 -10 -1 -16 -5 -14 -9 3 -4 1 -8 -5 -8 -5 0 -11
4 -13 9 -1 5 -9 3 -15 -4z"/>
<path d="M1205 7980 c3 -5 8 -10 11 -10 2 0 4 5 4 10 0 6 -5 10 -11 10 -5 0
-7 -4 -4 -10z"/>
<path d="M10225 7980 c3 -5 8 -10 11 -10 2 0 4 5 4 10 0 6 -5 10 -11 10 -5 0
-7 -4 -4 -10z"/>
</g>
</svg>
